<svg xmlns="http://www.w3.org/2000/svg" xmlns:bx="https://boxy-svg.com" version="1.1" id="Layer_1" x="0px" y="0px" style="enable-background:new 0 0 430 85;" viewBox="2.4 13.2 67.6 67.5">
  <defs>
    <bx:export>
      <bx:file format="svg" excluded="true"/>
    </bx:export>
  </defs>
  <style type="text/css">
	.st0{fill:#0061AA;}
</style>
  <path class="st0" d="M36.3,13.2c0,0-8.8,5.3-14,9.2c0,0,8.4,7,15.1,10.2c0,0,5.7,3,11.5,3c0,0,5.7,0.1,10.8-4.1 c0,0-5.3-6.6-11.9-10.9C47.8,20.6,39.6,15.1,36.3,13.2"/>
  <path class="st0" d="M70,47c0,0-5.3-8.8-9.1-14c0,0-7,8.4-10.2,15c0,0-3.1,5.7-3,11.4c0,0-0.1,5.6,4,10.8c0,0,6.6-5.3,10.9-11.8 C62.6,58.5,68.1,50.3,70,47"/>
  <path class="st0" d="M36.2,80.7c0,0,8.8-5.3,14-9.2c0,0-8.4-7-15.1-10.2c0,0-5.7-3-11.5-3c0,0-5.7-0.1-10.8,4.1 c0,0,5.3,6.6,11.9,10.9C24.6,73.3,32.8,78.8,36.2,80.7"/>
  <path class="st0" d="M2.4,46.9c0,0,5.2,8.8,9.1,14c0,0,7-8.4,10.3-15c0,0,3.1-5.7,3.1-11.4c0,0,0.1-5.6-4-10.8 c0,0-6.6,5.3-10.9,11.8C9.8,35.4,4.3,43.6,2.4,46.9"/>
</svg>